<?xml version="1.0" standalone="no"?>
<!DOCTYPE svg PUBLIC "-//W3C//DTD SVG 20010904//EN"
 "http://www.w3.org/TR/2001/REC-SVG-20010904/DTD/svg10.dtd">
<svg version="1.0" xmlns="http://www.w3.org/2000/svg"
 width="700.000000pt" height="700.000000pt" viewBox="0 0 700.000000 700.000000"
 preserveAspectRatio="xMidYMid meet">
<metadata>
Created by potrace 1.14, written by Peter Selinger 2001-2017
</metadata>
<g transform="translate(0.000000,700.000000) scale(0.100000,-0.100000)"
fill="#000000" stroke="none">
<path d="M3455 5479 c-27 -5 -66 -11 -85 -13 -40 -6 -74 -13 -98 -20 -9 -3
-31 -8 -48 -11 -33 -5 -156 -41 -189 -54 -11 -5 -47 -19 -80 -31 -113 -44
-296 -141 -399 -212 -226 -157 -453 -403 -589 -639 l-26 -46 -72 18 c-183 45
-433 58 -589 30 -36 -7 -74 -14 -85 -16 -155 -26 -346 -107 -520 -221 -228
-149 -409 -357 -529 -607 -46 -96 -99 -249 -110 -322 -4 -20 -8 -41 -11 -45
-17 -28 -26 -340 -13 -460 34 -309 190 -635 413 -865 139 -143 267 -236 437
-318 100 -48 289 -111 369 -122 24 -3 51 -8 59 -10 57 -15 413 -17 2425 -17
2044 0 2269 1 2354 16 102 18 212 52 300 93 153 72 344 233 426 361 21 31 45
68 54 82 45 67 91 182 122 308 24 95 34 320 19 402 -4 25 -11 61 -14 80 -6 40
-40 150 -62 198 -8 17 -22 49 -31 70 -51 115 -188 283 -308 378 -230 183 -532
266 -832 229 -62 -7 -63 -7 -64 16 0 13 -2 31 -4 39 -1 8 -6 35 -9 60 -30 203
-129 474 -243 664 -29 49 -53 91 -53 94 0 2 -10 17 -22 32 -13 15 -30 38 -38
50 -37 57 -167 205 -242 275 -305 286 -661 458 -1103 531 -61 10 -453 12 -510
3z"/>
</g>
</svg>
