<svg id="Camada_1" data-name="Camada 1" xmlns="http://www.w3.org/2000/svg" viewBox="0 0 150 150"><defs><style>.cls-1{fill:#fff}</style></defs><g id="Grupo_83" data-name="Grupo 83"><path id="jlx2g" class="cls-1" d="M65.19 53.1a2.52 2.52 0 0 1 2.51 2.5h4.79a7.3 7.3 0 1 0-14.6 0h4.79a2.69 2.69 0 0 1 2.51-2.5z"/></g><g id="Grupo_84" data-name="Grupo 84"><path id="jlx2h" class="cls-1" d="M84.81 53.1a2.53 2.53 0 0 1 2.51 2.5h4.79a7.3 7.3 0 0 0-14.6 0h4.79a2.52 2.52 0 0 1 2.51-2.5z"/></g><g id="Grupo_85" data-name="Grupo 85"><path id="jlx2i" class="cls-1" d="M75 128.61a4.82 4.82 0 0 1-4.79-4.79 4.79 4.79 0 0 1 9.58 0 4.82 4.82 0 0 1-4.79 4.79zM75 114a9.81 9.81 0 0 0 0 19.62A9.81 9.81 0 1 0 75 114z"/></g><g id="Grupo_86" data-name="Grupo 86"><path id="jlx2j" class="cls-1" d="M121.31 143.21V111.5a12.16 12.16 0 0 0-12.09-12.09H88.69L98.5 80a31.44 31.44 0 0 1 30.11 31.49v31.71zm-87.6 0V111.5a7.21 7.21 0 0 1 7.12-7.3h68.39a7.2 7.2 0 0 1 7.29 7.12v31.89zM21.39 111.5A31.58 31.58 0 0 1 51.5 80l9.81 19.39H40.78a12.16 12.16 0 0 0-12.09 12.11v31.71h-7.3zm49.73-12.09h-4.33L57 80h4.33zM50.59 53.1v-9.81c7.53-.69 14.14-4.34 17.34-9.36C73 40.78 85 45.34 99.41 46v7.29a23.61 23.61 0 0 1-5 14.6H75v4.79h14.6a24.32 24.32 0 0 1-34-4.78 25.28 25.28 0 0 1-5.01-14.8zm-5.93 0A6.1 6.1 0 0 1 39 46.71 6.34 6.34 0 0 1 44.66 41h1.14v12.1zm54.75-12.32c-17.57-.69-29.2-7.76-29.2-14.6a2.51 2.51 0 1 0-5 0c0 6.16-6.39 11.18-14.37 12.09a24.37 24.37 0 0 1 48.59 2.51zM75 6.79A31.61 31.61 0 0 1 106.48 36h-2.74a29.15 29.15 0 0 0-57.48.23h-2.74A31.45 31.45 0 0 1 75 6.79zm30.34 46.31h-1.14V41h1.14a6.05 6.05 0 0 1 0 12.09zm1.37 7.29a7.37 7.37 0 0 1-6.39 7.3 24 24 0 0 0 3.42-9.58h2.74v2.28zM93 79.79l-9.79 19.39h-4.33l9.81-19.39zM75 82.3a28.68 28.68 0 0 0 7.53-1.15L75 96.44l-7.53-15.06a42.45 42.45 0 0 0 7.53.92zm58.4 29.2A36.6 36.6 0 0 0 96.9 75h-2.74a25.86 25.86 0 0 0 2.51-2.51h2.74A12.16 12.16 0 0 0 111.5 60.4v-4.34a11 11 0 0 0 3-15.28 12.28 12.28 0 0 0-3-3 36.51 36.51 0 0 0-73 0 11 11 0 0 0-3 15.22v.06a11.17 11.17 0 0 0 9.13 4.79h1.59A28.7 28.7 0 0 0 55.84 75H53.1a36.61 36.61 0 0 0-36.5 36.5v31.71H2V148h146v-4.79h-14.6z"/></g><g id="Grupo_87" data-name="Grupo 87"><path id="jlx2k" class="cls-1" d="M106.71 138.19v-17.11h4.79v17.11z"/></g><g id="Grupo_88" data-name="Grupo 88"><path id="jlx2l" class="cls-1" d="M106.71 116.29v-4.79h4.79v4.79z"/></g><g id="Grupo_89" data-name="Grupo 89"><path id="jlx2m" class="cls-1" d="M128.61 28.69V23.9h4.79v4.79z"/></g><g id="Grupo_90" data-name="Grupo 90"><path id="jlx2n" class="cls-1" d="M128.61 38.5v-4.79h4.79v4.79z"/></g><g id="Grupo_91" data-name="Grupo 91"><path id="jlx2o" class="cls-1" d="M128.61 48.31v-4.79h4.79v4.79z"/></g><g id="Grupo_92" data-name="Grupo 92"><path id="jlx2p" class="cls-1" d="M16.6 57.89V53.1h4.79v4.79z"/></g><g id="Grupo_93" data-name="Grupo 93"><path id="jlx2q" class="cls-1" d="M16.6 67.7v-4.79h4.79v4.79z"/></g><g id="Grupo_94" data-name="Grupo 94"><path id="jlx2r" class="cls-1" d="M16.6 77.51v-4.79h4.79v4.79z"/></g></svg>