<svg id="Camada_1" data-name="Camada 1" xmlns="http://www.w3.org/2000/svg" viewBox="0 0 150 150"><defs><style>.cls-1{fill:#2ec9d4}</style></defs><g id="cloud"><path id="Caminho_28" data-name="Caminho 28" class="cls-1" d="M29.67 27.79h59.72a2.14 2.14 0 1 0 .1-4.27H29.67a2.14 2.14 0 0 0-.11 4.27.2.2 0 0 0 .11 0z"/><path id="Caminho_29" data-name="Caminho 29" class="cls-1" d="M29.67 38.33h59.72a2.14 2.14 0 1 0 .1-4.27H29.67a2.14 2.14 0 0 0-.11 4.27z"/><path id="Caminho_30" data-name="Caminho 30" class="cls-1" d="M29.67 72h59.72a2.14 2.14 0 1 0 .1-4.27.17.17 0 0 0-.1 0H29.67a2.14 2.14 0 1 0-.11 4.27z"/><path id="Caminho_31" data-name="Caminho 31" class="cls-1" d="M139.18 49.72a8.72 8.72 0 0 0 8.7-8.7V20.84a8.72 8.72 0 0 0-8.7-8.71H25.49a8.72 8.72 0 0 0-8.7 8.71v5.07a2.14 2.14 0 0 0 4.27 0v-5.07a4.45 4.45 0 0 1 4.43-4.44h113.69a4.45 4.45 0 0 1 4.43 4.44V41a4.44 4.44 0 0 1-4.43 4.43H25.49A4.45 4.45 0 0 1 21.06 41v-5.06a2.14 2.14 0 0 0-4.27-.11V41a8.72 8.72 0 0 0 8.7 8.7h2v6.49h-2a8.71 8.71 0 0 0-8.7 8.7v20.2a8.72 8.72 0 0 0 7.43 8.61 22.94 22.94 0 0 0-14.77 17.09 14.49 14.49 0 0 0 7 27.08h122.73a8.71 8.71 0 0 0 8.7-8.71v-5.07a2.14 2.14 0 0 0-4.27 0v5.07a4.44 4.44 0 0 1-4.43 4.44h-29.91a13.36 13.36 0 0 0 1.76-3.07c2.2-5.32 1.17-11.61-2.51-15.28a12.8 12.8 0 0 0-7.52-3.71 23 23 0 0 0-2.33-7h40.51a4.44 4.44 0 0 1 4.43 4.43v5.08a2.14 2.14 0 0 0 4.27 0V109a8.72 8.72 0 0 0-8.7-8.7H138v-6.51h1.19a8.71 8.71 0 0 0 8.7-8.7V64.91a8.72 8.72 0 0 0-8.7-8.7H138v-6.49zm-33.67 68.55c2.45 2.45 3.11 6.93 1.58 10.64a7.06 7.06 0 0 1-6.43 4.69H16.58c-10.82 0-14.14-14.88-4.3-19.46a2.11 2.11 0 0 0 1.21-1.63A18.58 18.58 0 0 1 27.43 97.2a2.09 2.09 0 0 0 1.37-1 25.36 25.36 0 0 1 44.41-.26A2.14 2.14 0 0 0 75.43 97a18.43 18.43 0 0 1 21.31 15 17.27 17.27 0 0 1 .22 1.76 2.13 2.13 0 0 0 2.18 2 8.68 8.68 0 0 1 6.37 2.55zm28.22-18h-38c-.36-.42-.73-.82-1.13-1.21a22.51 22.51 0 0 0-8.29-5.28h47.39zm9.88-35.37v20.19a4.43 4.43 0 0 1-4.43 4.43H74a29.7 29.7 0 0 0-8.25-7h23.64a2.14 2.14 0 0 0 0-4.27H29.67a2.14 2.14 0 1 0-.11 4.27h6.8a29.48 29.48 0 0 0-8.23 7h-2.64a4.43 4.43 0 0 1-4.43-4.43V64.91a4.44 4.44 0 0 1 4.43-4.43h113.69a4.44 4.44 0 0 1 4.43 4.43zm-9.88-8.7H31.8v-6.47h101.93z"/><path id="Caminho_32" data-name="Caminho 32" class="cls-1" d="M137 30.93a9.61 9.61 0 1 0-9.61 9.6 9.61 9.61 0 0 0 9.61-9.6zm-14.94 0a5.34 5.34 0 1 1 5.33 5.33 5.33 5.33 0 0 1-5.33-5.33z"/><path id="Caminho_33" data-name="Caminho 33" class="cls-1" d="M127.39 84.6a9.61 9.61 0 1 0-9.6-9.6 9.61 9.61 0 0 0 9.6 9.6zm0-14.94a5.34 5.34 0 1 1-5.33 5.34 5.34 5.34 0 0 1 5.33-5.34z"/><path id="Caminho_34" data-name="Caminho 34" class="cls-1" d="M117.79 119.08a9.61 9.61 0 1 0 9.6-9.61 9.62 9.62 0 0 0-9.6 9.61zm14.94 0a5.34 5.34 0 1 1-5.34-5.34 5.35 5.35 0 0 1 5.34 5.34z"/></g></svg>