<svg id="Camada_1" data-name="Camada 1" xmlns="http://www.w3.org/2000/svg" viewBox="0 0 150 150"><defs><style>.cls-1{fill:#2ec9d4}</style></defs><g id="https"><path id="Caminho_35" data-name="Caminho 35" class="cls-1" d="M125.43 75.33H124V52.08a49 49 0 0 0-98 0v23.25h-1.4A9.58 9.58 0 0 0 15 84.9v52.47a9.58 9.58 0 0 0 9.57 9.57h100.86a9.57 9.57 0 0 0 9.57-9.57V84.9a9.57 9.57 0 0 0-9.57-9.56zM30.19 52.08a44.81 44.81 0 0 1 89.62 0v23.25h-8.59V52.08a36.23 36.23 0 0 0-72.45-.39v23.64h-8.59zM43 75.33V52.08a32 32 0 0 1 64 0v23.25zm87.8 62a5.36 5.36 0 0 1-5.36 5.35H24.57a5.36 5.36 0 0 1-5.36-5.35V84.9a5.36 5.36 0 0 1 5.36-5.35h100.86a5.36 5.36 0 0 1 5.36 5.35z"/><path id="Caminho_36" data-name="Caminho 36" class="cls-1" d="M118.64 114a2.11 2.11 0 0 0-2.11 2.1v8.07a2 2 0 0 1-2 2H35.48a2 2 0 0 1-2-2v-8.07a2.11 2.11 0 1 0-4.22 0v8.06a6.24 6.24 0 0 0 6.23 6.23h79.05a6.24 6.24 0 0 0 6.22-6.23v-8.06a2.11 2.11 0 0 0-2.12-2.1z"/><path id="Caminho_37" data-name="Caminho 37" class="cls-1" d="M114.53 91.92H35.48a6.24 6.24 0 0 0-6.23 6.22v7.77a2.11 2.11 0 1 0 4.22 0v-7.77a2 2 0 0 1 2-2h79.05a2 2 0 0 1 2 2v8.07a2.11 2.11 0 0 0 4.21 0v-8.07a6.23 6.23 0 0 0-6.2-6.22z"/><path id="Caminho_38" data-name="Caminho 38" class="cls-1" d="M50 103.38a1.82 1.82 0 0 0-1.83 1.82v4.29H43v-4.29a1.83 1.83 0 0 0-3.65 0v12.68a1.83 1.83 0 0 0 3.65 0v-4.73h5.12v4.74a1.83 1.83 0 0 0 3.65 0V105.2a1.81 1.81 0 0 0-1.77-1.82z"/><path id="Caminho_39" data-name="Caminho 39" class="cls-1" d="M106.71 109.93c-1.52-.56-2.93-1.17-3.41-1.38s-.28-1.12.64-1.4a4 4 0 0 1 3.27.76 1.82 1.82 0 1 0 2.34-2.8 7.68 7.68 0 0 0-6.66-1.46c-4.36 1.32-4.35 6.79-1.24 8.17.07 0 1.82.81 3.8 1.54 2.78 1 1.17 2.7-.47 2.7a4.17 4.17 0 0 1-3.07-1.28 1.83 1.83 0 1 0-2.71 2.45 7.8 7.8 0 0 0 5.78 2.48c5.89 0 8.23-7.38 1.73-9.78z"/><path id="Caminho_40" data-name="Caminho 40" class="cls-1" d="M66 103.38h-7a1.82 1.82 0 1 0 0 3.62h1.67v10.86a1.83 1.83 0 0 0 3.65 0V107H66a1.83 1.83 0 0 0 0-3.65z"/><path id="Caminho_41" data-name="Caminho 41" class="cls-1" d="M79.78 103.38h-7a1.82 1.82 0 1 0 0 3.64h1.67v10.86a1.83 1.83 0 0 0 3.65 0V107h1.69a1.83 1.83 0 0 0 0-3.65z"/><path id="Caminho_42" data-name="Caminho 42" class="cls-1" d="M90.75 103.38h-3.54a1.82 1.82 0 0 0-1.82 1.82v12.68a1.83 1.83 0 0 0 3.65 0v-3.69h1.7a5.41 5.41 0 1 0 0-10.81zm0 7.15h-1.69v-3.51h1.7a1.75 1.75 0 1 1 .12 3.5z"/></g></svg>