<svg id="Camada_1" data-name="Camada 1" xmlns="http://www.w3.org/2000/svg" viewBox="0 0 150 150"><defs><style>.cls-1{fill:#fff}</style></defs><g id="Grupo_33" data-name="Grupo 33"><path id="yb1dc" class="cls-1" d="M121.58 114.24a2.55 2.55 0 0 1-2.52 2.53H30.94a2.56 2.56 0 0 1-2.53-2.53v-19.5a2.55 2.55 0 0 1 2.53-2.53h88.12a2.54 2.54 0 0 1 2.52 2.53zm0-49.11v19.51a2.54 2.54 0 0 1-2.52 2.52H30.94a2.54 2.54 0 0 1-2.53-2.52V65.13a2.54 2.54 0 0 1 2.53-2.52h88.12a2.71 2.71 0 0 1 2.52 2.52zM28.41 35.76a2.57 2.57 0 0 1 2.53-2.53h88.12a2.55 2.55 0 0 1 2.52 2.53v19.5a2.54 2.54 0 0 1-2.52 2.53H30.94a2.55 2.55 0 0 1-2.53-2.53zm98 0a7.24 7.24 0 0 0-7.16-7.34.54.54 0 0 0-.18 0H30.94a7.25 7.25 0 0 0-7.35 7.16v19.68a7 7 0 0 0 1.84 4.82 7.46 7.46 0 0 0-1.84 4.82v19.51a7 7 0 0 0 1.84 4.82 7.42 7.42 0 0 0-1.84 4.82v19.51a7.26 7.26 0 0 0 7.17 7.34h88.3a7.26 7.26 0 0 0 7.34-7.17V94.05a7 7 0 0 0-1.84-4.82 7.46 7.46 0 0 0 1.84-4.82V64.9a7 7 0 0 0-1.84-4.82 7.41 7.41 0 0 0 1.84-4.81z"/></g><g id="Grupo_34" data-name="Grupo 34"><path id="yb1dd" class="cls-1" d="M33.46 53v-4.85h4.82V53z"/></g><g id="Grupo_35" data-name="Grupo 35"><path id="yb1de" class="cls-1" d="M43.1 53v-4.85h4.82V53z"/></g><g id="Grupo_36" data-name="Grupo 36"><path id="yb1df" class="cls-1" d="M33.46 43.1v-4.82h4.82v4.82z"/></g><g id="Grupo_37" data-name="Grupo 37"><path id="yb1dg" class="cls-1" d="M43.1 43.1v-4.82h4.82v4.82z"/></g><g id="Grupo_38" data-name="Grupo 38"><path id="yb1dh" class="cls-1" d="M53 53v-4.85h4.82V53z"/></g><g id="Grupo_39" data-name="Grupo 39"><path id="yb1di" class="cls-1" d="M53 43.1v-4.82h4.82v4.82z"/></g><g id="Grupo_40" data-name="Grupo 40"><path id="yb1dj" class="cls-1" d="M62.84 53v-4.85h4.82V53z"/></g><g id="Grupo_41" data-name="Grupo 41"><path id="yb1dk" class="cls-1" d="M62.84 43.1v-4.82h4.82v4.82z"/></g><g id="Grupo_42" data-name="Grupo 42"><path id="yb1dl" class="cls-1" d="M72.48 53v-4.85h4.81V53z"/></g><g id="Grupo_43" data-name="Grupo 43"><path id="yb1dm" class="cls-1" d="M72.48 43.1v-4.82h4.81v4.82z"/></g><g id="Grupo_44" data-name="Grupo 44"><path id="yb1dn" class="cls-1" d="M94.51 43.1h17.21v5H94.51zm-2.3 9.9h22a2.55 2.55 0 0 0 2.53-2.52v-9.9a2.57 2.57 0 0 0-2.53-2.53h-22a2.55 2.55 0 0 0-2.52 2.53v9.87A2.54 2.54 0 0 0 92.21 53z"/></g><g id="Grupo_45" data-name="Grupo 45"><path id="yb1do" class="cls-1" d="M33.46 82.34v-4.81h4.82v4.81z"/></g><g id="Grupo_46" data-name="Grupo 46"><path id="yb1dp" class="cls-1" d="M43.1 82.34v-4.81h4.82v4.81z"/></g><g id="Grupo_47" data-name="Grupo 47"><path id="yb1dq" class="cls-1" d="M33.46 72.48v-4.82h4.82v4.82z"/></g><g id="Grupo_48" data-name="Grupo 48"><path id="yb1dr" class="cls-1" d="M43.1 72.48v-4.82h4.82v4.82z"/></g><g id="Grupo_49" data-name="Grupo 49"><path id="yb1ds" class="cls-1" d="M53 82.34v-4.81h4.82v4.81z"/></g><g id="Grupo_50" data-name="Grupo 50"><path id="yb1dt" class="cls-1" d="M53 72.48v-4.82h4.82v4.82z"/></g><g id="Grupo_51" data-name="Grupo 51"><path id="yb1du" class="cls-1" d="M62.84 82.34v-4.81h4.82v4.81z"/></g><g id="Grupo_52" data-name="Grupo 52"><path id="yb1dv" class="cls-1" d="M62.84 72.48v-4.82h4.82v4.82z"/></g><g id="Grupo_53" data-name="Grupo 53"><path id="yb1dw" class="cls-1" d="M72.48 82.34v-4.81h4.81v4.81z"/></g><g id="Grupo_54" data-name="Grupo 54"><path id="yb1dx" class="cls-1" d="M72.48 72.48v-4.82h4.81v4.82z"/></g><g id="Grupo_55" data-name="Grupo 55"><path id="yb1dy" class="cls-1" d="M94.51 72.48h17.21v5H94.51zm-2.3 9.87h22a2.57 2.57 0 0 0 2.53-2.53V70a2.55 2.55 0 0 0-2.53-2.52h-22A2.54 2.54 0 0 0 89.69 70v9.87a2.55 2.55 0 0 0 2.52 2.48z"/></g><g id="Grupo_56" data-name="Grupo 56"><path id="yb1dz" class="cls-1" d="M33.46 111.72v-4.82h4.82v4.82z"/></g><g id="Grupo_57" data-name="Grupo 57"><path id="yb1dA" class="cls-1" d="M43.1 111.72v-4.82h4.82v4.82z"/></g><g id="Grupo_58" data-name="Grupo 58"><path id="yb1dB" class="cls-1" d="M33.46 101.85V97h4.82v4.82z"/></g><g id="Grupo_59" data-name="Grupo 59"><path id="yb1dC-2" class="cls-1" d="M43.1 101.85V97h4.82v4.82z"/></g><g id="Grupo_60" data-name="Grupo 60"><path id="yb1dD-2" class="cls-1" d="M53 111.72v-4.82h4.82v4.82z"/></g><g id="Grupo_61" data-name="Grupo 61"><path id="yb1dE-2" class="cls-1" d="M53 101.85V97h4.82v4.82z"/></g><g id="Grupo_62" data-name="Grupo 62"><path id="yb1dF-2" class="cls-1" d="M62.84 111.72v-4.82h4.82v4.82z"/></g><g id="Grupo_63" data-name="Grupo 63"><path id="yb1dG-2" class="cls-1" d="M62.84 101.85V97h4.82v4.82z"/></g><g id="Grupo_64" data-name="Grupo 64"><path id="yb1dH-2" class="cls-1" d="M72.48 111.72v-4.82h4.81v4.82z"/></g><g id="Grupo_65" data-name="Grupo 65"><path id="yb1dI-2" class="cls-1" d="M72.48 101.85V97h4.81v4.82z"/></g><g id="Grupo_66" data-name="Grupo 66"><path id="yb1dJ-2" class="cls-1" d="M111.72 106.9H94.51v-5.05h17.21zm2.52-9.9h-22a2.54 2.54 0 0 0-2.52 2.53v9.86a2.54 2.54 0 0 0 2.49 2.61h22a2.56 2.56 0 0 0 2.53-2.53v-9.91a2.72 2.72 0 0 0-2.5-2.56z"/></g><g id="Grupo_67" data-name="Grupo 67"><path id="yb1dK-2" class="cls-1" d="M148 67c-.23-1.84-.46-3.67-.69-5.28l-4.82.92c.23 1.6.46 3.21.69 5z"/></g><g id="Grupo_68" data-name="Grupo 68"><path id="yb1dL-2" class="cls-1" d="M140.17 108.74a45.26 45.26 0 0 0 2.3-4.82l-4.59-1.84c-.69 1.61-1.38 3-2.07 4.59z"/></g><g id="Grupo_69" data-name="Grupo 69"><path id="yb1dM-2" class="cls-1" d="M140 52.74a38.36 38.36 0 0 1 1.37 4.82l4.82-1.15a48.63 48.63 0 0 0-1.6-5.28z"/></g><g id="Grupo_70" data-name="Grupo 70"><path id="yb1dN-2" class="cls-1" d="M148.44 75v-2.75l-4.82.23v5l4.82.22z"/></g><g id="Grupo_71" data-name="Grupo 71"><path id="yb1dO-2" class="cls-1" d="M148 83l-4.82-.46c-.23 1.61-.46 3.45-.69 5.05l4.82.92L148 83z"/></g><g id="Grupo_72" data-name="Grupo 72"><path id="yb1dP-2" class="cls-1" d="M146.14 93.59l-4.82-1.15-1.32 4.82 4.59 1.61c.41-1.61 1.09-3.44 1.55-5.28z"/></g><g id="Grupo_73" data-name="Grupo 73"><path id="yb1dQ-2" class="cls-1" d="M135.81 43.56a39.31 39.31 0 0 1 2.07 4.59l4.59-1.83c-.69-1.61-1.61-3.22-2.3-4.82z"/></g><g id="Grupo_74" data-name="Grupo 74"><path id="yb1dR-2" class="cls-1" d="M14.19 106.44a38.57 38.57 0 0 1-2.07-4.59l-4.59 1.84a45.26 45.26 0 0 0 2.3 4.82z"/></g><g id="Grupo_75" data-name="Grupo 75"><path id="yb1dS-2" class="cls-1" d="M9.83 41.27c-.69 1.6-1.61 3.21-2.3 4.82l4.59 1.83c.69-1.6 1.38-3 2.07-4.59z"/></g><g id="Grupo_76" data-name="Grupo 76"><path id="yb1dT-2" class="cls-1" d="M6.61 77.53v-5l-5.05-.23v5.28z"/></g><g id="Grupo_77" data-name="Grupo 77"><path id="yb1dU-2" class="cls-1" d="M10.05 97.26a37.89 37.89 0 0 1-1.37-4.82l-4.82 1.15a48.63 48.63 0 0 0 1.6 5.28z"/></g><g id="Grupo_78" data-name="Grupo 78"><path id="yb1dV-2" class="cls-1" d="M10.05 52.74l-4.59-1.61a36.08 36.08 0 0 0-1.6 5.28l4.82 1.15z"/></g><g id="Grupo_79" data-name="Grupo 79"><path id="yb1dW-2" class="cls-1" d="M2 67l4.82.46c.23-1.61.46-3.21.69-5.05l-4.82-.92z"/></g><g id="Grupo_80" data-name="Grupo 80"><path id="yb1dX-2" class="cls-1" d="M2.71 88.31l4.82-.92c-.23-1.6-.46-3.44-.69-5L2 82.8c.25 2.07.48 3.68.71 5.51z"/></g><g id="Grupo_81" data-name="Grupo 81"><path id="yb1dY-2" class="cls-1" d="M106.9 23.6h14.69a2.56 2.56 0 0 0 2.52-2.53V6.38h-4.82v9.87a73.22 73.22 0 0 0-91.79 3l3.21 3.67A67.83 67.83 0 0 1 75 6.38a69.41 69.41 0 0 1 39 12.17h-7.1z"/></g><g id="Grupo_82" data-name="Grupo 82"><path id="yb1dZ-2" class="cls-1" d="M43.1 126.41H28.41a2.54 2.54 0 0 0-2.52 2.52v14.69h4.82v-9.87a73.23 73.23 0 0 0 91.8-3l-3.22-3.67A67.83 67.83 0 0 1 75 143.62a69.48 69.48 0 0 1-39-12.16h7.1z"/></g></svg>