<svg id="Camada_1" data-name="Camada 1" xmlns="http://www.w3.org/2000/svg" viewBox="0 0 150 150"><defs><style>.cls-1{fill:#fff}</style></defs><g id="Grupo_15" data-name="Grupo 15"><path id="Caminho_22" data-name="Caminho 22" class="cls-1" d="M102.4 41.73a6.08 6.08 0 1 0 6.06 6.08 6.06 6.06 0 0 0-6.06-6.08z"/><path id="Caminho_23" data-name="Caminho 23" class="cls-1" d="M75.42 49.5A25.49 25.49 0 1 0 100.89 75a25.52 25.52 0 0 0-25.47-25.5zm0 41.82A16.35 16.35 0 1 1 91.77 75a16.34 16.34 0 0 1-16.33 16.33z"/><path id="Caminho_24" data-name="Caminho 24" class="cls-1" d="M95.65 126.74h-41.3a31.14 31.14 0 0 1-31.09-31.08V54.35a31.14 31.14 0 0 1 31.09-31.09h41.3a31.14 31.14 0 0 1 31.09 31.09v41.31a31.14 31.14 0 0 1-31.09 31.08zM54.35 33A21.36 21.36 0 0 0 33 54.32v41.32A21.38 21.38 0 0 0 54.35 117h41.3A21.38 21.38 0 0 0 117 95.64V54.35A21.36 21.36 0 0 0 95.65 33z"/></g></svg>