<svg id="Camada_1" data-name="Camada 1" xmlns="http://www.w3.org/2000/svg" viewBox="0 0 150 150"><defs><style>.cls-1{fill:#163247}</style></defs><path id="Caminho_16" data-name="Caminho 16" class="cls-1" d="M89 91.63H20.26a18.47 18.47 0 1 1-.05-36.94 19.05 19.05 0 0 1 2.39.15 32.33 32.33 0 0 1 60-11.7A24.66 24.66 0 1 1 89 91.63zM20.27 56.71a16.45 16.45 0 0 0 0 32.9H89a22.64 22.64 0 1 0-6.56-44.3l-.79.23-.39-.72a30.31 30.31 0 0 0-56.77 11.29l-.12 1.09-1.08-.2a17.08 17.08 0 0 0-3-.28z"/><path id="Caminho_17" data-name="Caminho 17" class="cls-1" d="M62 75.74a23.72 23.72 0 0 1 6.85 1 31.32 31.32 0 0 1 58.65 11.67 17.46 17.46 0 1 1 3.23 34.59H62a23.65 23.65 0 0 1 0-47.29z"/></svg>