<svg id="Camada_1" data-name="Camada 1" xmlns="http://www.w3.org/2000/svg" viewBox="0 0 150 150"><defs><style>.cls-1{fill:#fff}</style></defs><g id="Grupo_22" data-name="Grupo 22"><path id="_61yld" data-name="61yld" class="cls-1" d="M53.35 55.88v-4.73h4.73v4.73z"/></g><g id="Grupo_23" data-name="Grupo 23"><path id="_61yle" data-name="61yle" class="cls-1" d="M43.65 55.88v-4.73h4.73v4.73z"/></g><g id="Grupo_24" data-name="Grupo 24"><path id="_61ylf" data-name="61ylf" class="cls-1" d="M34.17 55.88v-4.73h4.74v4.73z"/></g><g id="Grupo_25" data-name="Grupo 25"><path id="_61ylg" data-name="61ylg" class="cls-1" d="M115.82 142a56.49 56.49 0 0 1-21-23.23l-.22-.67a53.23 53.23 0 0 1-4.06-12l-.45-1.58-.23-1.8c0-.45-.22-1.13-.22-1.58a6 6 0 0 1-.23-2l-.22-1.35c0-1.13-.23-2.26-.23-3.39V79.79h53v14.66A54.61 54.61 0 0 1 115.82 142zm-26.39-23.64H14.78a7.13 7.13 0 0 1-7.22-7V31.75h66.31l8.8 11a2 2 0 0 0 1.8.9h48v31.41H87a2.51 2.51 0 0 0-2.48 2.48v17.14a19.85 19.85 0 0 0 .23 3.61v1.13l.22 2.48.23 1.35c.22.9.22 1.81.45 2.48l.22.9.63 3.37.23.9a12.5 12.5 0 0 0 .9 2.71l.22.9c.45 1.13.68 2 1.13 3.16v.22l.45.45zM14.78 22.05h110.74a7.13 7.13 0 0 1 7.22 7V39H85.83L77 27.91a2.08 2.08 0 0 0-1.8-.9H8a7.48 7.48 0 0 1 6.77-5zm11-14.43H57l6.31 9.69h-44zm118.91 67.44h-7.21V29.27a12 12 0 0 0-11.95-12H69.14L60.34 4a3.11 3.11 0 0 0-2.26-1.13h-33.6a2.36 2.36 0 0 0-2 1.13l-9 13.53A11.76 11.76 0 0 0 2.82 29.27v81.87a12 12 0 0 0 12 12h77.1a59.06 59.06 0 0 0 22.78 23.68 2.45 2.45 0 0 0 2.48 0 60.52 60.52 0 0 0 30-52.1V77.54a2.51 2.51 0 0 0-2.49-2.48z"/></g><g id="Grupo_26" data-name="Grupo 26"><path id="_61ylh" data-name="61ylh" class="cls-1" d="M113.57 115l-7.9-7.89-3.6 3.38 9.69 9.7a2.47 2.47 0 0 0 3.39 0L134.32 101l-3.38-3.38z"/></g><g id="Grupo_27" data-name="Grupo 27"><path id="_61yli" data-name="61yli" class="cls-1" d="M94.17 89.49v-4.74h4.74v4.74z"/></g><g id="Grupo_28" data-name="Grupo 28"><path id="_61ylj" data-name="61ylj" class="cls-1" d="M103.87 89.49v-4.74h4.74v4.74z"/></g><g id="Grupo_29" data-name="Grupo 29"><path id="_61ylk" data-name="61ylk" class="cls-1" d="M113.57 89.49v-4.74h4.74v4.74z"/></g><g id="Grupo_30" data-name="Grupo 30"><path id="_61yll" data-name="61yll" class="cls-1" d="M123 89.49v-4.74h4.74v4.74z"/></g><g id="Grupo_31" data-name="Grupo 31"><path id="_61ylm" data-name="61ylm" class="cls-1" d="M132.74 89.49v-4.74h4.74v4.74z"/></g><g id="Grupo_32" data-name="Grupo 32"><path id="_61yln" data-name="61yln" class="cls-1" d="M46.13 65.36c-15.56 0-26.39-6.32-26.39-12s10.83-11.91 26.39-11.91 26.39 6.31 26.39 11.95-10.83 11.96-26.39 11.96zm0 14.43c-15.56 0-26.39-6.31-26.39-12v-5.37c5.41 4.74 15.11 7.67 26.39 7.67s21-3.15 26.39-7.67v5.42c0 5.64-10.83 12-26.39 12zm0 14.44c-15.56 0-26.39-6.32-26.39-12v-5.37c5.41 4.74 15.11 7.89 26.39 7.89s21-3.15 26.39-7.89v5.41c0 5.64-10.83 12-26.39 12zm0 14.43c-15.56 0-26.39-6.31-26.39-12V91.3c5.41 4.73 15.11 7.89 26.39 7.89S67.1 96 72.52 91.3v5.41c0 5.64-10.83 12-26.39 12zm0-72.17c-17.59 0-31.35 7.44-31.35 16.91v43.31c0 9.47 13.76 16.92 31.35 16.92s31.35-7.45 31.35-16.92V53.4c0-9.47-13.76-16.91-31.35-16.91z"/></g></svg>