<svg data-name="Camada 1" xmlns="http://www.w3.org/2000/svg" viewBox="0 0 150 150"><g data-name="Grupo 14" fill="#fff"><path data-name="Caminho 20" d="M22.94 127.21l7.44-27.85a51.56 51.56 0 1 1 20.53 20.34zm29.39-17.94l1.76 1a41.86 41.86 0 1 0-14.32-14.14l1.08 1.77-4.13 15.56z"/><path data-name="Caminho 21" d="M94.52 81.67A8.62 8.62 0 0 0 87.16 80c-1.92.78-3.13 3.77-4.38 5.31a1.84 1.84 0 0 1-2.37.51 33.34 33.34 0 0 1-16.65-14.25 2 2 0 0 1 .24-2.79 11.1 11.1 0 0 0 3-4.91 10.8 10.8 0 0 0-1.35-5.78 13.79 13.79 0 0 0-4.29-6.47 5.9 5.9 0 0 0-6.39 1 13 13 0 0 0-4.48 10.27 14.33 14.33 0 0 0 .4 3.26 27.28 27.28 0 0 0 3.12 7.2 54.42 54.42 0 0 0 3.27 5A50.38 50.38 0 0 0 71.47 91.4a43.14 43.14 0 0 0 8.84 4.2 19.69 19.69 0 0 0 10.27 1.65 12.44 12.44 0 0 0 9.31-6.93 6.06 6.06 0 0 0 .44-3.54c-.54-2.49-3.84-3.94-5.81-5.11z" fill-rule="evenodd"/></g></svg>