<svg data-name="Camada 1" xmlns="http://www.w3.org/2000/svg" viewBox="0 0 150 150"><path d="M75 2a73 73 0 1 0 73 73A73 73 0 0 0 75 2zm0 10.46a62.17 62.17 0 0 1 42.15 16.39 10.79 10.79 0 0 0-5.58.33c-5.06 1.76-9.39 9.1-6.2 15.26A94 94 0 0 0 113 55.52c2 2.75 6.53 12.73 2.67 27.4-2.71 10.38-8.4 28.25-8.4 28.25L84.54 45.1h7.15a2.64 2.64 0 1 0 0-5.28H57a2.64 2.64 0 1 0 0 5.28h6l10.38 27-13.5 40.21L37.29 45.1h7.15a2.64 2.64 0 0 0 0-5.28H23.31A62.6 62.6 0 0 1 75 12.46zM12.46 75a62 62 0 0 1 5.24-25.06l30.11 81.37A62.57 62.57 0 0 1 12.46 75zm44.38 59.83l19.52-54L95.91 134a62.38 62.38 0 0 1-39.07.88zm51.21-6.75c3.93-11.55 17.5-51.87 20.07-59.87 2.42-7.52 4.36-11.92 4.22-18.15a62.45 62.45 0 0 1-24.29 78z" fill="#2ec9d4"/></svg>