<svg version="1.1" id="Camada_1" xmlns="http://www.w3.org/2000/svg" x="0" y="0" viewBox="0 0 396.8 60.5" xml:space="preserve"><style>.st0{fill:#163247}.st1{fill:#2ec9d4}</style><g id="Grupo_4"><g id="Grupo_3" transform="translate(65.951 11.483)"><g id="Grupo_1" transform="translate(0 5.131)"><path id="Caminho_1" class="st0" d="M42.8 10c2.5 0 5.6 1.4 5.6 6.5v8.9H47v-8.7c0-3.8-1.8-5.5-4.5-5.5s-4.8 1.9-4.9 5.7v8.5h-1.4v-15h1.2l.2 3.8v.1c.4-2.5 2.6-4.4 5.2-4.3z"/><path id="Caminho_2" class="st0" d="M59.5 25.8c-2.8 0-6.1-1.4-6.1-6.5v-8.9h1.4v8.9c0 3.3 1.7 5.3 4.7 5.3s4.7-2 4.7-5.3v-8.9h1.4v8.9c0 5-3.3 6.5-6.1 6.5z"/><path id="Caminho_3" class="st0" d="M82.4 10.4l-6.5 15h-1.2l-6.5-15h1.5l5.6 13.4 5.6-13.4h1.5z"/><path id="Caminho_4" class="st0" d="M85.7 17.7c0 3.8 2.3 6.8 6.2 6.8 1.9.1 3.7-.7 4.9-2.1l1 .8c-1.5 1.6-3.7 2.5-5.9 2.5-4.1.1-7.6-3.2-7.6-7.4v-.7c-.2-4 2.9-7.5 7-7.7h.3c3.8-.1 6.9 2.9 7 6.6v1.1l-12.9.1zm5.8-6.5c-3.1 0-5.6 2.4-5.8 5.5h11.4c0-3-2.4-5.5-5.5-5.5h-.1z"/><path id="Caminho_5" class="st0" d="M118.5 10c2.5 0 5.2 1.4 5.2 6.5v8.9h-1.4v-8.8c0-3.2-1.3-5.4-4.1-5.4-2.5 0-4.1 2-4.3 5.6v8.6h-1.4v-9c0-3-1.5-5.1-4.1-5.1-2.4 0-4.1 2-4.3 5.3v8.9h-1.4v-15h1.2l.2 3c.6-2 2.5-3.4 4.6-3.4 2.3 0 4.3 1.5 4.9 3.8.4-2.4 2.5-4 4.9-3.9z"/></g><g id="Grupo_2" transform="translate(61.42)"><path id="Caminho_6" class="st1" d="M87.9 8.6v21.9h-5v-9.2h-8.4v9.2h-5V8.6h5v8.7h8.4V8.6h5z"/><path id="Caminho_7" class="st1" d="M91.5 22.6c-.2-4.9 3.5-9 8.4-9.2 4.9-.2 9 3.5 9.2 8.4.2 4.9-3.5 9-8.4 9.2h-.4c-4.6.3-8.5-3.2-8.8-7.7v-.7zm12.7 0c-.2-2.2-2.2-3.8-4.4-3.5-2.2.2-3.8 2.2-3.5 4.4.2 2 1.9 3.6 4 3.6 2.3 0 4.1-1.9 4-4.2 0-.1 0-.2-.1-.3z"/><path id="Caminho_8" class="st1" d="M113.3 25.7c1 1.1 2.5 1.8 4 1.8s2.3-.6 2.3-1.6c0-2.6-7.9-1-7.9-6.5 0-3 2.5-5.2 6.7-5.2 2.1-.1 4.2.6 5.9 1.9l-2.4 2.9c-.9-.8-2-1.3-3.2-1.3-1.4 0-2.1.6-2.1 1.6 0 3 8.1 1.2 8.1 6.7 0 2.9-2.4 5-6.8 5-2.6.2-5.2-.7-7.2-2.5l2.6-2.8z"/><path id="Caminho_9" class="st1" d="M137.3 14.2c4.1 0 7.3 3.1 7.3 8.4s-3.2 8.4-7.3 8.4c-1.8 0-3.6-.6-4.8-1.9v8.6h-4.7v-23h4.1l.3 1.7c1.3-1.4 3.2-2.2 5.1-2.2zm2.6 8.4c-.3-2.2-2.3-3.7-4.4-3.4-2.2.3-3.7 2.3-3.4 4.4.3 2 2 3.5 4 3.4 2.2-.1 4-1.9 3.9-4.2-.1 0-.1-.1-.1-.2z"/><path id="Caminho_10" class="st1" d="M163.3 23.8h-11.9c.1 2.2 1.9 3.9 4.1 3.8 1.3.1 2.6-.5 3.5-1.5l3.1 2.5c-1.8 1.7-4.1 2.5-6.6 2.4-5.6 0-9.1-3.5-9.1-8.4-.1-4.5 3.5-8.3 8-8.4h.6c4.3-.2 8 3.1 8.2 7.4v.9l.1 1.3zm-8.2-6.1c-1.9 0-3.5 1.6-3.6 3.5h7.2c0-2-1.6-3.6-3.6-3.5z"/><path id="Caminho_11" class="st1" d="M181.9 7.2v23.3H178l-.5-1.8c-1.3 1.5-3.2 2.3-5.2 2.3-4.1 0-7.3-3.1-7.3-8.4s3.2-8.4 7.3-8.4c1.8 0 3.6.6 4.8 1.9v-9h4.8zm-4.2 15.4c-.3-2.2-2.3-3.7-4.4-3.4-2.2.3-3.7 2.3-3.4 4.4.3 2 1.9 3.4 3.9 3.4 2.2-.1 4-1.9 4-4.2-.1 0-.1-.1-.1-.2z"/><path id="Caminho_12" class="st1" d="M201.8 14.7v15.9H198l-.5-1.8c-1.3 1.5-3.2 2.3-5.2 2.3-4.1 0-7.3-3.1-7.3-8.4s3.2-8.4 7.3-8.4c2-.1 3.9.8 5.2 2.3l.5-1.9h3.8zm-4.2 7.9c-.3-2.2-2.3-3.7-4.4-3.4-2.2.3-3.7 2.3-3.4 4.4.3 2 1.9 3.4 3.9 3.4 2.2-.1 4-1.9 4-4.2-.1 0-.1-.1-.1-.2z"/><path id="Caminho_13" class="st1" d="M221.8 14.7V29c0 5.8-3 8.7-8.4 8.7-1.3 0-2.7-.2-3.9-.6l.9-3.7c.8.4 1.8.5 2.7.5 3.1 0 3.9-2 4-5.1-1.3 1.3-3 1.9-4.8 1.9-4.1 0-7.3-3.1-7.3-8.2s3.2-8.2 7.3-8.2c2-.1 3.9.8 5.2 2.2l.5-1.8h3.8zm-4.3 7.8c-.2-2.2-2.2-3.7-4.3-3.5-2.2.2-3.7 2.2-3.5 4.3.2 2 1.9 3.5 3.9 3.5 2.2 0 4-1.9 4-4.1-.1 0-.1-.1-.1-.2z"/><path id="Caminho_14" class="st1" d="M241.6 23.8h-11.9c.1 2.2 1.9 3.9 4.1 3.8 1.3.1 2.6-.5 3.5-1.5l3.1 2.5c-1.8 1.7-4.1 2.5-6.6 2.4-5.6 0-9.1-3.5-9.1-8.4-.1-4.5 3.5-8.3 8-8.4h.6c4.3-.2 8 3.1 8.2 7.4v.9l.1 1.3zm-8.2-6.1c-1.9 0-3.5 1.6-3.6 3.5h7.2c0-2-1.6-3.6-3.6-3.5z"/><path id="Caminho_15" class="st1" d="M263.1 14.2c3.7 0 5.8 2.3 5.8 6.9v9.4h-4.7v-8.8c0-2.1-.7-3.5-2.4-3.5-1.8 0-2.7 1.5-2.7 4.1v8.2h-4.7v-8.8c0-2.1-.7-3.5-2.4-3.5s-2.6 1.2-2.7 3.5v8.8h-4.7V14.7h4.1l.5 1.9c.9-1.5 2.5-2.4 4.3-2.4 1.8-.1 3.5.8 4.5 2.2 1.2-1.4 3.1-2.3 5.1-2.2z"/></g></g><path id="Caminho_16" class="st0" d="M53.6 40.4H11.8C5.6 40.4.5 35.4.5 29.2c0-6.2 5-11.3 11.2-11.3.5 0 1 0 1.5.1C14.7 7.2 24.7-.3 35.4 1.2c6 .8 11.3 4.4 14.3 9.7 8-2.1 16.2 2.6 18.4 10.6 2.1 8-2.6 16.2-10.6 18.4a16 16 0 0 1-3.9.5zM11.8 19.1c-5.5 0-10 4.5-10 10s4.5 10 10 10h41.8c7.6 0 13.8-6.2 13.8-13.8 0-7.6-6.2-13.8-13.8-13.8-1.3 0-2.7.2-4 .6l-.5.1-.2-.4c-4.9-9-16.1-12.3-25-7.4-5.3 2.9-8.9 8.2-9.5 14.3l-.1.7-.7-.1c-.6-.1-1.2-.2-1.8-.2z"/><path id="Caminho_17" class="st1" d="M37.2 30.7c1.4 0 2.8.2 4.2.6 5-9.3 16.6-12.7 25.9-7.6 5.5 3 9.2 8.5 9.8 14.7 5.8-1.1 11.3 2.7 12.4 8.5 1.1 5.8-2.7 11.3-8.5 12.4-.7.1-1.3.2-2 .2H37.2c-8-.1-14.3-6.6-14.3-14.5.2-7.9 6.5-14.2 14.3-14.3z"/></g></svg>